# xmcd
#
# Track frame offsets:
#	150
#	18105
#	32026
#	50759
#	73308
#	86042
#	98785
#	121952
#	137940
#	150010
#	165660
#	189976
#	205078
#	220931
#
# Disc length: 3212 seconds
#
# Revision: 1
# Processed by: cddbd v1.5.2PL0 Copyright (c) Steve Scherf et al.
# Submitted via: audiograbber 1.83.01
#
DISCID=bc0c8a0e
DTITLE=Various Artist - Golden Pop Hits 9
DYEAR=2007
DGENRE=Oldies
TTITLE0=Roussos, Demis - Goodbye My Love Goodbye
TTITLE1=New Seekers, The - Never Ending Song Of Love
TTITLE2=Stewart, Amii - Knock On Wood
TTITLE3=Paul, Lynsey de - Sugar Me
TTITLE4=Shangri - Las, The - Leader Of The Pack
TTITLE5=Anderson, Lynn - Rose Garden (I Never Promised You A)
TTITLE6=Chi - Lites, The - Have You Seen Her
TTITLE7=Station, Candi - Suspicious Minds
TTITLE8=Wynette, Tammy - Stand By Your Man
TTITLE9=Rawls, Lou - Lady Love
TTITLE10=Preston, Billy - Outer Space
TTITLE11=Orlando, Tony and Dawn - Candida
TTITLE12=Chapman, Roger - Let's Spend The Night Together
TTITLE13=Temptations, The - Masterpiece
EXTD=
EXTT0=
EXTT1=
EXTT2=
EXTT3=
EXTT4=
EXTT5=
EXTT6=
EXTT7=
EXTT8=
EXTT9=
EXTT10=
EXTT11=
EXTT12=
EXTT13=
PLAYORDER=
